<?xml version="1.0" encoding="utf-8"?>
<!-- Generator: Adobe Illustrator 27.4.0, SVG Export Plug-In . SVG Version: 6.00 Build 0)  -->
<svg version="1.1" id="_레이어_1" xmlns="http://www.w3.org/2000/svg" xmlns:xlink="http://www.w3.org/1999/xlink" x="0px"
	 y="0px" viewBox="0 0 714.2 164.4" style="enable-background:new 0 0 714.2 164.4;" xml:space="preserve">
<g>
	<path d="M0,112V52.4c0-0.5,0.2-0.9,0.5-1.2c0.3-0.3,0.7-0.5,1.2-0.5h8.4c0.5,0,0.9,0.2,1.2,0.5c0.3,0.4,0.5,0.8,0.5,1.2v23.9h29.4
		V52.4c0-0.5,0.2-0.9,0.5-1.2c0.3-0.3,0.7-0.5,1.2-0.5h8.3c0.5,0,0.9,0.2,1.2,0.5c0.3,0.4,0.5,0.8,0.5,1.2V112
		c0,0.5-0.2,0.9-0.5,1.2c-0.4,0.3-0.8,0.5-1.2,0.5h-8.3c-0.5,0-0.9-0.2-1.2-0.5c-0.3-0.4-0.5-0.8-0.5-1.2v-25H11.8v25
		c0,0.5-0.2,0.9-0.5,1.2c-0.3,0.3-0.7,0.5-1.2,0.5H1.7c-0.5,0-0.9-0.2-1.2-0.5C0.2,112.9,0,112.5,0,112z"/>
	<path d="M80.2,112V83.4L59.6,53.3c-0.2-0.2-0.3-0.6-0.3-1c0-0.5,0.2-0.9,0.5-1.2c0.3-0.3,0.7-0.5,1.3-0.5h9.2c0.5,0,1,0.3,1.4,0.8
		l14.4,20.7l14.4-20.7c0.4-0.5,0.9-0.8,1.4-0.8h9.3c0.5,0,1,0.2,1.3,0.5c0.3,0.3,0.5,0.7,0.5,1.2c0,0.4-0.1,0.7-0.3,1l-20.8,30V112
		c0,0.5-0.2,0.9-0.5,1.2c-0.3,0.3-0.7,0.5-1.2,0.5h-8.3c-0.5,0-0.9-0.2-1.2-0.5C80.4,112.9,80.2,112.5,80.2,112L80.2,112z"/>
	<path d="M119.5,112V52.4c0-0.5,0.2-0.9,0.5-1.2c0.3-0.3,0.7-0.5,1.2-0.5h21.2c5.5,0,10.3,2,14.2,5.9c4,3.9,6,8.6,6,14.1
		c0,5.5-2,10.4-5.9,14.3c-3.9,4-8.7,6-14.2,6h-11.3V112c0,0.5-0.2,0.9-0.5,1.2c-0.3,0.3-0.7,0.5-1.2,0.5h-8.3
		c-0.5,0-0.9-0.2-1.2-0.5C119.7,112.9,119.5,112.5,119.5,112L119.5,112z M131.2,79.8H142c2.5,0,4.6-0.9,6.4-2.7
		c1.7-1.8,2.6-4,2.6-6.7c0-2.5-0.9-4.5-2.6-6.2c-1.7-1.7-3.8-2.5-6.4-2.5h-10.8V79.8L131.2,79.8z"/>
	<path d="M170.7,112V52.4c0-0.5,0.2-0.9,0.5-1.2c0.3-0.3,0.7-0.5,1.2-0.5h36.7c0.5,0,0.9,0.2,1.2,0.5c0.3,0.4,0.5,0.8,0.5,1.2v7.4
		c0,0.5-0.2,0.9-0.5,1.2c-0.3,0.3-0.7,0.5-1.2,0.5h-26.7v14.9h22.3c0.5,0,0.9,0.2,1.2,0.5c0.3,0.4,0.5,0.7,0.5,1.2v7.4
		c0,0.5-0.2,0.9-0.5,1.2c-0.3,0.3-0.7,0.5-1.2,0.5h-22.3v15.8h26.7c0.5,0,0.9,0.2,1.2,0.5c0.3,0.4,0.5,0.8,0.5,1.2v7.4
		c0,0.5-0.2,0.9-0.5,1.2c-0.3,0.3-0.7,0.5-1.2,0.5h-36.7c-0.5,0-0.9-0.2-1.2-0.5C170.8,112.9,170.7,112.5,170.7,112L170.7,112z"/>
	<path d="M220.2,112V52.4c0-0.5,0.2-0.9,0.5-1.2c0.3-0.3,0.7-0.5,1.2-0.5h25.8c5.4,0,10,1.9,13.9,5.7c3.8,3.8,5.8,8.4,5.8,13.7
		c0,4.1-1.2,7.7-3.6,10.9c-2.4,3.2-5.7,5.6-9.7,7.3l12.3,22.9c0.2,0.2,0.3,0.5,0.3,0.9c0,0.5-0.2,0.9-0.5,1.2
		c-0.3,0.3-0.8,0.5-1.3,0.5h-9.5c-0.7,0-1.2-0.3-1.4-0.8l-12-23.9h-10v23c0,0.5-0.2,0.9-0.5,1.2c-0.3,0.3-0.7,0.5-1.2,0.5h-8.3
		c-0.5,0-0.9-0.2-1.2-0.5C220.3,112.9,220.2,112.5,220.2,112L220.2,112z M232,79.4h14.7c2.4,0,4.5-0.9,6.3-2.7
		c1.8-1.8,2.7-4,2.7-6.5s-0.9-4.5-2.7-6.2c-1.8-1.7-3.9-2.6-6.3-2.6H232V79.4z"/>
	<path d="M306.2,49.7c4.4,0,8.4,0.7,11.9,2.1c3.5,1.4,6.8,3.5,10,6.3c0.4,0.4,0.6,0.8,0.6,1.3c0,0.5-0.2,0.9-0.5,1.3l-5.5,5.7
		c-0.7,0.7-1.5,0.7-2.3,0c-1.8-1.6-3.9-2.9-6.4-3.9c-2.5-1-5-1.4-7.5-1.4c-5.6,0-10.4,2.1-14.3,6.2c-3.9,4.1-5.8,9.1-5.8,14.8
		c0,3.7,0.9,7.2,2.6,10.4c1.7,3.2,4.2,5.7,7.3,7.6c3.1,1.9,6.5,2.8,10.3,2.8c4.9,0,9.5-1.7,13.8-5.1c0.8-0.7,1.6-0.7,2.3,0l5.6,5.8
		c0.3,0.3,0.5,0.7,0.5,1.1c0,0.5-0.2,1-0.5,1.3c-6,5.8-13.3,8.7-21.9,8.7c-5.9,0-11.3-1.4-16.4-4.3c-5-2.9-9-6.8-11.9-11.7
		c-2.9-4.9-4.3-10.4-4.3-16.3s1.4-11.4,4.3-16.4s6.8-8.9,11.8-11.8C294.8,51.2,300.2,49.7,306.2,49.7L306.2,49.7z"/>
	<path d="M335.5,98.6c-2.9-4.9-4.3-10.4-4.3-16.3s1.4-11.4,4.3-16.4s6.8-8.9,11.7-11.8c4.9-2.9,10.4-4.3,16.3-4.3s11.4,1.4,16.4,4.3
		c5,2.9,8.9,6.8,11.8,11.8c2.9,5,4.3,10.4,4.3,16.4s-1.4,11.4-4.3,16.3c-2.9,4.9-6.8,8.8-11.8,11.7c-5,2.9-10.4,4.3-16.4,4.3
		c-6,0-11.4-1.4-16.3-4.3C342.3,107.4,338.4,103.5,335.5,98.6z M342.9,82.3c0,5.6,2,10.5,6,14.6c4,4.1,8.9,6.1,14.6,6.1
		c3.7,0,7.2-0.9,10.4-2.8s5.7-4.4,7.6-7.5c1.9-3.2,2.8-6.6,2.8-10.3c0-3.7-0.9-7.2-2.8-10.4c-1.9-3.2-4.4-5.8-7.6-7.6
		c-3.2-1.9-6.6-2.8-10.4-2.8c-3.7,0-7.2,0.9-10.3,2.8c-3.2,1.9-5.7,4.4-7.5,7.6C343.8,75.1,342.9,78.5,342.9,82.3z"/>
	<path d="M403.9,112V51.4c0-0.5,0.2-0.9,0.5-1.2c0.3-0.3,0.7-0.5,1.2-0.5h1.3c0.6,0,1.1,0.2,1.5,0.6l36.8,39.2h0.2V52.4
		c0-0.5,0.2-0.9,0.5-1.2c0.3-0.3,0.7-0.5,1.2-0.5h8.3c0.5,0,0.9,0.2,1.2,0.5c0.3,0.4,0.5,0.8,0.5,1.2V113c0,0.5-0.2,0.9-0.5,1.2
		c-0.4,0.3-0.8,0.5-1.2,0.5h-1.3c-0.6,0-1.1-0.2-1.5-0.6l-37-40.7h-0.2V112c0,0.5-0.2,0.9-0.5,1.2c-0.3,0.3-0.7,0.5-1.2,0.5h-8.2
		c-0.5,0-0.9-0.2-1.2-0.5C404,112.9,403.9,112.5,403.9,112L403.9,112z"/>
	<path d="M466.6,112V51.4c0-0.5,0.2-0.9,0.5-1.2c0.3-0.3,0.7-0.5,1.2-0.5h1.3c0.6,0,1.1,0.2,1.5,0.6l36.8,39.2h0.2V52.4
		c0-0.5,0.2-0.9,0.5-1.2c0.3-0.3,0.7-0.5,1.2-0.5h8.3c0.5,0,0.9,0.2,1.2,0.5c0.3,0.4,0.5,0.8,0.5,1.2V113c0,0.5-0.2,0.9-0.5,1.2
		s-0.8,0.5-1.2,0.5h-1.3c-0.6,0-1.1-0.2-1.5-0.6l-37-40.7h-0.2V112c0,0.5-0.2,0.9-0.5,1.2c-0.3,0.3-0.7,0.5-1.2,0.5h-8.2
		c-0.5,0-0.9-0.2-1.2-0.5C466.7,112.9,466.5,112.5,466.6,112L466.6,112z"/>
	<path d="M529.2,112V52.4c0-0.5,0.2-0.9,0.5-1.2c0.3-0.3,0.7-0.5,1.2-0.5h36.7c0.5,0,0.9,0.2,1.2,0.5c0.3,0.4,0.5,0.8,0.5,1.2v7.4
		c0,0.5-0.2,0.9-0.5,1.2c-0.3,0.3-0.7,0.5-1.2,0.5H541v14.9h22.3c0.5,0,0.9,0.2,1.2,0.5c0.3,0.4,0.5,0.7,0.5,1.2v7.4
		c0,0.5-0.2,0.9-0.5,1.2c-0.3,0.3-0.7,0.5-1.2,0.5H541v15.8h26.7c0.5,0,0.9,0.2,1.2,0.5c0.3,0.4,0.5,0.8,0.5,1.2v7.4
		c0,0.5-0.2,0.9-0.5,1.2c-0.3,0.3-0.7,0.5-1.2,0.5H531c-0.5,0-0.9-0.2-1.2-0.5C529.4,112.9,529.2,112.5,529.2,112L529.2,112z"/>
	<path d="M605.7,49.7c4.4,0,8.4,0.7,11.9,2.1c3.5,1.4,6.8,3.5,10,6.3c0.4,0.4,0.6,0.8,0.6,1.3c0,0.5-0.2,0.9-0.5,1.3l-5.5,5.7
		c-0.7,0.7-1.5,0.7-2.3,0c-1.8-1.6-3.9-2.9-6.4-3.9c-2.5-1-5-1.4-7.5-1.4c-5.6,0-10.4,2.1-14.3,6.2s-5.8,9.1-5.8,14.8
		c0,3.7,0.9,7.2,2.6,10.4s4.2,5.7,7.3,7.6c3.1,1.9,6.5,2.8,10.3,2.8c4.9,0,9.5-1.7,13.8-5.1c0.8-0.7,1.6-0.7,2.3,0l5.6,5.8
		c0.3,0.3,0.5,0.7,0.5,1.1c0,0.5-0.2,1-0.5,1.3c-6,5.8-13.3,8.7-21.9,8.7c-5.9,0-11.3-1.4-16.4-4.3c-5-2.9-9-6.8-11.9-11.7
		c-2.9-4.9-4.3-10.4-4.3-16.3s1.4-11.4,4.3-16.4s6.8-8.9,11.8-11.8C594.3,51.2,599.8,49.7,605.7,49.7L605.7,49.7z"/>
	<path d="M649.6,112V61.5h-13.8c-0.5,0-0.9-0.2-1.2-0.5c-0.3-0.4-0.5-0.8-0.5-1.2v-7.4c0-0.5,0.2-0.9,0.5-1.2
		c0.3-0.3,0.7-0.5,1.2-0.5h39.4c0.5,0,0.9,0.2,1.2,0.5c0.3,0.4,0.5,0.8,0.5,1.2v7.4c0,0.5-0.2,0.9-0.5,1.2c-0.3,0.3-0.7,0.5-1.2,0.5
		h-13.8V112c0,0.5-0.2,0.9-0.5,1.2c-0.3,0.3-0.7,0.5-1.2,0.5h-8.4c-0.5,0-0.9-0.2-1.2-0.5C649.8,112.9,649.6,112.5,649.6,112
		L649.6,112z"/>
	<path d="M683,72.3c-0.8-2-1.3-4.1-1.3-6.3c0-2.2,0.4-4.3,1.3-6.3c0.9-2,2-3.7,3.5-5.2c1.4-1.5,3.2-2.6,5.2-3.5
		c2-0.9,4.1-1.3,6.3-1.3c2.2,0,4.3,0.4,6.3,1.3c2,0.9,3.7,2,5.2,3.5s2.6,3.2,3.5,5.2c0.9,2,1.3,4.1,1.3,6.3c0,2.2-0.4,4.3-1.3,6.3
		c-0.9,2-2,3.7-3.5,5.2c-1.5,1.4-3.2,2.6-5.2,3.5c-2,0.9-4.1,1.3-6.3,1.3c-2.2,0-4.3-0.4-6.3-1.3c-2-0.9-3.7-2-5.2-3.5
		S683.9,74.3,683,72.3L683,72.3z M710.6,66c0-2.3-0.6-4.4-1.7-6.4c-1.1-1.9-2.7-3.5-4.6-4.6c-1.9-1.1-4.1-1.7-6.4-1.7
		c-2.3,0-4.4,0.6-6.4,1.7c-2,1.1-3.5,2.7-4.6,4.6c-1.1,2-1.7,4.1-1.7,6.4c0,2.3,0.6,4.4,1.7,6.4c1.1,2,2.7,3.5,4.6,4.6
		c2,1.1,4.1,1.7,6.4,1.7c2.3,0,4.4-0.6,6.4-1.7c2-1.1,3.5-2.7,4.6-4.6S710.6,68.3,710.6,66L710.6,66z M691.9,73.3V58.5
		c0-0.2,0.1-0.4,0.2-0.6c0.2-0.2,0.4-0.2,0.6-0.2h7c1.5,0,2.8,0.5,3.9,1.5c1.1,1,1.7,2.4,1.7,4.1c0,2.3-1.1,4-3.2,5l2.1,4.7
		c0.1,0.2,0.1,0.3,0.1,0.4c0,0.2-0.1,0.4-0.2,0.6c-0.2,0.2-0.4,0.2-0.6,0.2H701c-0.4,0-0.6-0.2-0.8-0.6l-2-5.1h-2.3v4.8
		c0,0.2-0.1,0.4-0.2,0.6c-0.2,0.2-0.4,0.2-0.6,0.2h-2.2c-0.2,0-0.4-0.1-0.6-0.2C692,73.8,691.9,73.6,691.9,73.3L691.9,73.3z
		 M695.7,65.2h3.6c0.5,0,1-0.2,1.3-0.5c0.3-0.4,0.5-0.8,0.5-1.3c0-0.5-0.2-1-0.5-1.3c-0.3-0.3-0.8-0.5-1.3-0.5h-3.6V65.2L695.7,65.2
		z"/>
</g>
</svg>
